<svg data-name="그룹 163278" xmlns="http://www.w3.org/2000/svg" width="32" height="32"><path data-name="패스 45966" d="M0 0h32v32H0z" style="fill:none"/><path data-name="패스 45967" d="M13.363 25.689a13.33 13.33 0 0 1-3.946-1.2L3 25.853l1.775-5.325C1.6 15.835 2.828 9.78 7.642 6.364a13.457 13.457 0 0 1 16.172.655 10.489 10.489 0 0 1 3.7 6.637" transform="translate(.096 .454)" style="stroke:#5768d3;stroke-linecap:round;stroke-linejoin:round;stroke-width:2px;fill:none"/><path data-name="패스 45968" d="m19.461 24.557 4.574-4.484a2.926 2.926 0 0 0 .007-4.193 3.061 3.061 0 0 0-4.272-.008l-.306.3-.3-.3a3.061 3.061 0 0 0-4.271-.008 2.926 2.926 0 0 0-.008 4.193z" transform="translate(4.114 4.48)" style="stroke:#5768d3;stroke-linecap:round;stroke-linejoin:round;stroke-width:2px;fill:none"/></svg>