<svg data-name="그룹 163278" xmlns="http://www.w3.org/2000/svg" width="32" height="32"><path data-name="패스 45966" d="M0 0h32v32H0z" style="fill:none"/><path data-name="패스 46002" d="M8 9h11.027" transform="translate(2.487 1.479)" style="stroke:#575e79;stroke-linecap:round;stroke-linejoin:round;stroke-width:2px;fill:none"/><path data-name="패스 46003" d="M8 13h8.27" transform="translate(2.487 2.993)" style="stroke:#575e79;stroke-linecap:round;stroke-linejoin:round;stroke-width:2px;fill:none"/><path data-name="패스 46004" d="M18.162 23.3h-1.378l-6.892 4.132V23.3H7.135A4.135 4.135 0 0 1 3 19.162V8.135A4.135 4.135 0 0 1 7.135 4h16.54a4.135 4.135 0 0 1 4.135 4.135v6.2" transform="translate(.595 -.412)" style="stroke:#575e79;stroke-linecap:round;stroke-linejoin:round;stroke-width:2px;fill:none"/><path data-name="패스 46005" d="M19 22v.014" transform="translate(6.649 6.398)" style="stroke:#575e79;stroke-linecap:round;stroke-linejoin:round;stroke-width:2px;fill:none"/><path data-name="패스 46006" d="M19.568 20.513a2.761 2.761 0 0 0 1.26-5.213 2.729 2.729 0 0 0-3.327.666" transform="translate(6.081 3.75)" style="stroke:#575e79;stroke-linecap:round;stroke-linejoin:round;stroke-width:2px;fill:none"/></svg>