<svg data-name="그룹 163278" xmlns="http://www.w3.org/2000/svg" width="32" height="32"><path data-name="패스 45966" d="M0 0h32v32H0z" style="fill:none"/><path data-name="패스 45998" d="M14 3v6a1.5 1.5 0 0 0 1.5 1.5h6" transform="translate(5.125 -.505)" style="stroke:#2fa9a1;stroke-linecap:round;stroke-linejoin:round;stroke-width:2px;fill:none"/><path data-name="패스 45999" d="M23.007 30.011H8a3 3 0 0 1-3-3V6a3 3 0 0 1 3-3h10.5l7.5 7.5v16.509a3 3 0 0 1-2.993 3.002z" transform="translate(.62 -.505)" style="stroke:#2fa9a1;stroke-linecap:round;stroke-linejoin:round;stroke-width:2px;fill:none"/><path data-name="패스 46000" d="m11 21.711 7.5-7.5a2.122 2.122 0 0 0-3-3L8 18.71v3z" transform="translate(2.121 3.292)" style="stroke:#2fa9a1;stroke-linecap:round;stroke-linejoin:round;stroke-width:2px;fill:none"/></svg>