<svg xmlns="http://www.w3.org/2000/svg" width="129.194" height="95.547"><path data-name="패스 45971" d="M73.318 190.253a6.344 6.344 0 0 0 4.121-3.867v-.056l22.128-50.46 3.734 4.4-1.315 38.35a6.7 6.7 0 0 0 .706 5.062 4.14 4.14 0 0 0 3.719 2.163c6.251-.358 12.9-.56 19.805-.56 35.682 0 64.608 5.21 64.608 11.64s-28.927 11.645-64.608 11.645-64.586-5.211-64.586-11.63c0-2.495 4.326-4.796 11.688-6.687z" transform="translate(-61.63 -113.022)" style="fill:#e6e6e6;opacity:.45"/><g data-name="그룹 163288" transform="translate(15.955 79.772)"><ellipse data-name="타원 1659" cx="3.214" cy="1.189" rx="3.214" ry="1.189" transform="translate(43.624 3.406)" style="opacity:.08"/><ellipse data-name="타원 1660" cx="3.214" cy="1.189" rx="3.214" ry="1.189" transform="translate(31.331 .327)" style="opacity:.08"/><ellipse data-name="타원 1661" cx="3.214" cy="1.189" rx="3.214" ry="1.189" transform="translate(18.953 2.705)" style="opacity:.08"/><ellipse data-name="타원 1662" cx="3.214" cy="1.189" rx="3.214" ry="1.189" transform="translate(0 3.899)" style="opacity:.08"/><ellipse data-name="타원 1663" cx="3.285" cy="1.219" rx="3.285" ry="1.219" transform="translate(55.74)" style="opacity:.08"/></g><g data-name="그룹 163286"><path data-name="패스 45989" d="M172.287 238.18s-.746 2.519-2.957 2.816-2.675 2.519-.645 2.972 7.053-2.393 7.053-2.393l-.317-3.2z" transform="translate(-104.466 -160.332)" style="fill:#999"/><path data-name="패스 45990" d="M76.773 233.693s2.559.554 3.023 2.736 2.71 2.474 3.023.413S79.892 230 79.892 230l-3.164.569z" transform="translate(32.821 -156.27)" style="fill:#999"/><path data-name="패스 45986" d="M86.592 179.9s-.728 25.164 28.716 29.87l1.139-5.334s-23.583-5.846-8.349-21.506z" transform="translate(-5.077 -131.741)" style="fill:#404040"/><path data-name="패스 45974" d="M133.373 162.67s2.348 10.959-6.107 15.655-35.124-3.758-31 22.861h-5.955s-7.692-22.078 12.263-29.926l6.056-6.869z" transform="translate(-23.437 -123.156)" style="fill:#646464"/></g><path data-name="패스 45969" d="M52.55 76.166s9.785-7.239 19.567-6.254 19.666 13.6 19.666 13.6l-3.167 2.4S72.2 72.293 63.314 82.36 52.55 76.166 52.55 76.166z" transform="translate(19.756 -64.066)" style="fill:#4363a7"/><path data-name="사각형 148739" transform="translate(90.422 10.328)" style="fill:#cfcfcf" d="M0 0h29.611v23.329H0z"/><g data-name="그룹 163289" transform="translate(30.283 15.326)"><path data-name="사각형 148740" transform="rotate(136.3 7.607 17.5)" style="fill:#d1ac01" d="M0 0h2.811v18.399H0z"/><path data-name="사각형 148742" transform="rotate(136.3 8.293 17.221)" style="fill:#ffd200" d="M0 0h2.811v18.399H0z"/><ellipse data-name="타원 1655" cx="8.564" cy="5.713" rx="8.564" ry="5.713" transform="rotate(-133.7 10.454 8.081)" style="fill:#d1ac01"/><ellipse data-name="타원 1657" cx="8.564" cy="5.713" rx="8.564" ry="5.713" transform="rotate(-133.7 10.749 7.397)" style="fill:#ffd200"/><ellipse data-name="타원 1658" cx="5.658" cy="3.773" rx="5.658" ry="3.773" transform="rotate(-133.7 9.71 5.805)" style="fill:#fff;opacity:.6"/></g><g data-name="그룹 163287"><path data-name="패스 45975" d="M202.531 89.232S205.814 94 209 96.345a2.912 2.912 0 0 0 4.07-.641 6.422 6.422 0 0 0 .8-6.924l-1.878-5a5.2 5.2 0 0 0-5.3-2.8c-3.979.237-6.302 5.45-4.161 8.252z" transform="translate(-151.723 -79.122)" style="fill:#ffd7cc"/><path data-name="패스 45976" d="m186.48 86.25 14.82 5.97-1.82 10.542-10.68-8.715z" transform="translate(-127.358 -80.566)" style="fill:#ffd7cc"/><path data-name="패스 45977" d="M208.88 87.825a23.3 23.3 0 0 0 3.859-3.713 4.842 4.842 0 0 0 3.371 4.088 3.931 3.931 0 0 0 4.659-1.813l-4.805-5.679a5.9 5.9 0 0 0-5.65-2.184 21.738 21.738 0 0 0-2.686.641c-2.184.728-3.706 3.8-6.108 3.9a1.4 1.4 0 0 0-1.128 2.119c1.179 1.958 3.757 4.448 6.909 3.451a5.424 5.424 0 0 0 1.579-.81z" transform="translate(-156.813 -78.443)" style="fill:#333"/><path data-name="패스 45978" d="M204.7 91.13s-1.383-1.747 0-2.686 3.414 1.58 1.849 3.262z" transform="translate(-145.99 -81.108)" style="fill:#ffd7cc"/><path data-name="패스 45979" d="m210.36 96.31.175 2.745a.932.932 0 0 0 1.376.728l1.973-1.092z" transform="translate(-157.332 -83.302)" style="fill:#ffd7cc"/><path data-name="패스 45980" d="M198.308 96.582s-.444-3.313-1.638-4.572a8.516 8.516 0 0 1 5.519 7.754z" transform="translate(-135.67 -82.133)" style="fill:#ce8172;opacity:.16"/></g><path data-name="패스 45981" d="M86.834 115.756S86.943 99.7 67.66 96.31l11.329 20.048h7.827z" transform="translate(27.557 -82.701)" style="opacity:.08"/><path data-name="패스 45982" d="m89.49 95.975.7-4.066a9.931 9.931 0 0 1 5.956-7.542 17.627 17.627 0 0 1 4.2-1.1 19.9 19.9 0 0 1 7.334.762 32.254 32.254 0 0 1 23.529 26.592l.832 5.64-20.524 1.428s1.041-5.827-6.243-5.827-16.508.071-15.784-15.887z" transform="translate(-22.351 -76.291)" style="fill:#5b87e0"/><path data-name="패스 45983" d="M89.45 98.79s9.96 1.752 20.907 17.527l1.532 9.061-15.575 1.157z" transform="translate(-2.2 -85.412)" style="opacity:.08"/><path data-name="패스 45991" d="M228.322 155.307s-6.74-.712-7.332 1.92.7 4.028 6.765 2.083z" transform="translate(-172.382 -118.827)" style="fill:#ffd7cc"/><path data-name="패스 45984" d="M142.423 103.5a7.025 7.025 0 0 1 10.967-7.61c4.5 3.442 9.573 9.64 9.773 20.1.345 18.875-17.735 15.5-42.2 8.27l.778-5.5s29.3 5.54 25.323-3.983c-1.669-3.983-3.609-7.828-4.641-11.277z" transform="translate(-66.593 -82.866)" style="fill:#82a9f7"/><path data-name="패스 45988" d="M67.235 154.289s-1.1 4.47-5.521 3.528-1.264-6.425 5.521-3.528z" transform="translate(49.384 -122.856)" style="fill:#ffd7cc"/></svg>