<svg xmlns="http://www.w3.org/2000/svg" width="60" height="60"><g transform="translate(-512 -434)"><rect data-name="사각형 148746" width="53" height="34" rx="5" transform="translate(516 443)" style="fill:#fff"/><path data-name="사각형 1971" d="M0 0h53.785v2.208a5 5 0 0 1-5 5H5a5 5 0 0 1-5-5V0z" transform="translate(515.256 470.346)" style="fill:#d3d3d3"/><path data-name="패스 5738" d="M72.841 29.3a3.5 3.5 0 0 0-3.091-3.6.915.915 0 0 0-.2-.023H37.589c-4.543 0-9.117-.161-13.657 0A5.169 5.169 0 0 0 18.971 30a12.885 12.885 0 0 0-.081 2.134v20.351c0 2.259-.363 4.921 1.037 6.83 1.433 1.956 3.485 2.068 5.606 2.068h11.44v6.408H31.6a.89.89 0 0 0 0 1.776h28.527a.89.89 0 0 0 0-1.776h-5.369v-6.406c4.326.006 8.674.137 13 0a5.133 5.133 0 0 0 4.4-2.592 7.635 7.635 0 0 0 .688-3.954V44.684c-.005-5.123.143-10.267-.005-15.384zm-51.371-.724c1.283-1.466 3.4-1.128 5.124-1.128h42.95c1.767.127 1.586 1.9 1.586 3.2v20.569c0 .392.018.826.039 1.285H20.6V34.757c0-1.873-.444-4.68.87-6.181zm17.214 39.215v-6.406h14.363v6.406zm30.152-8.353a12.757 12.757 0 0 1-3.89.169H36.4c-4.125 0-8.285.162-12.407 0a3.457 3.457 0 0 1-3.4-3.467c-.024-.571 0-1.151 0-1.723v-.139h50.635c.013 2.198-.314 4.449-2.392 5.16z" transform="translate(496.407 416.815)" style="fill:#333"/><g data-name="그룹 5852"><path data-name="패스 5739" d="M214.185 137.436v-10.214c0-1.19-2-1.192-2 0v10.213c0 1.191 2 1.193 2 .001z" transform="translate(328.979 322.671)" style="fill:#333"/><path data-name="패스 5740" d="M213.306 145a1.285 1.285 0 1 0-1.285-1.285 1.285 1.285 0 0 0 1.285 1.285z" style="fill:#333" transform="translate(328.979 320.671)"/></g></g></svg>