<svg xmlns="http://www.w3.org/2000/svg" width="150" height="42"><path data-name="패스 45873" d="M31.672 8.132V32h-5.814v-9.826h-9.044V32H11V8.132h5.814v9.35h9.044v-9.35zm10 0V32h-5.818V8.132zm18.836 9.52v4.828H45.544v-4.828zm27.506-9.52L79.544 32h-7.276L63.802 8.132h6.19l5.916 18.02 5.95-18.02zm13.698 24.106a12.457 12.457 0 0 1-6.171-1.564 11.691 11.691 0 0 1-4.449-4.374 12.21 12.21 0 0 1-1.654-6.3 12.12 12.12 0 0 1 1.649-6.29 11.728 11.728 0 0 1 4.454-4.352 12.457 12.457 0 0 1 6.171-1.564 12.457 12.457 0 0 1 6.171 1.564 11.483 11.483 0 0 1 4.42 4.352 12.318 12.318 0 0 1 1.615 6.29 12.309 12.309 0 0 1-1.632 6.3 11.6 11.6 0 0 1-4.42 4.369 12.362 12.362 0 0 1-6.154 1.569zm0-5.3a5.857 5.857 0 0 0 4.573-1.9A7.228 7.228 0 0 0 108.002 20a7.214 7.214 0 0 0-1.717-5.049 5.883 5.883 0 0 0-4.573-1.887 5.95 5.95 0 0 0-4.607 1.87A7.2 7.2 0 0 0 95.392 20a7.214 7.214 0 0 0 1.717 5.049 5.923 5.923 0 0 0 4.603 1.885zm14.45-6.9a12.829 12.829 0 0 1 1.53-6.307 10.935 10.935 0 0 1 4.267-4.318 12.388 12.388 0 0 1 6.205-1.547 11.873 11.873 0 0 1 7.276 2.244 10.777 10.777 0 0 1 4.046 6.12h-6.394a5.162 5.162 0 0 0-2.023-2.278 5.688 5.688 0 0 0-2.975-.782 5.553 5.553 0 0 0-4.352 1.87 7.236 7.236 0 0 0-1.666 5 7.236 7.236 0 0 0 1.666 5 5.553 5.553 0 0 0 4.35 1.86 5.688 5.688 0 0 0 2.975-.782 5.162 5.162 0 0 0 2.025-2.278h6.392a10.7 10.7 0 0 1-4.046 6.1 11.935 11.935 0 0 1-7.274 2.23 12.388 12.388 0 0 1-6.205-1.547 10.965 10.965 0 0 1-4.267-4.3 12.733 12.733 0 0 1-1.53-6.291z"/></svg>