<svg xmlns="http://www.w3.org/2000/svg" width="92" height="30"><path data-name="패스 45874" d="M15.08 6.152V23h-4.1v-6.936H4.592V23h-4.1V6.152h4.1v6.6h6.384v-6.6zm7.056 0V23h-4.1V6.152zm13.3 6.72v3.408H24.872v-3.408zm19.416-6.72L48.872 23h-5.136L37.76 6.152h4.368l4.172 12.72 4.2-12.72zm9.668 17.016a8.793 8.793 0 0 1-4.356-1.1 8.253 8.253 0 0 1-3.144-3.088 8.619 8.619 0 0 1-1.164-4.452 8.555 8.555 0 0 1 1.164-4.44 8.279 8.279 0 0 1 3.144-3.072 8.793 8.793 0 0 1 4.356-1.1 8.793 8.793 0 0 1 4.356 1.1A8.106 8.106 0 0 1 72 10.088a8.7 8.7 0 0 1 1.14 4.44 8.689 8.689 0 0 1-1.156 4.452 8.191 8.191 0 0 1-3.12 3.084 8.726 8.726 0 0 1-4.344 1.104zm0-3.744a4.135 4.135 0 0 0 3.228-1.344 5.1 5.1 0 0 0 1.212-3.552 5.092 5.092 0 0 0-1.212-3.564 4.153 4.153 0 0 0-3.228-1.332 4.2 4.2 0 0 0-3.252 1.32 5.083 5.083 0 0 0-1.212 3.576 5.092 5.092 0 0 0 1.212 3.564 4.181 4.181 0 0 0 3.252 1.332zm10.2-4.872A9.056 9.056 0 0 1 75.8 10.1a7.719 7.719 0 0 1 3.012-3.048 8.745 8.745 0 0 1 4.38-1.092 8.381 8.381 0 0 1 5.136 1.584 7.607 7.607 0 0 1 2.856 4.32h-4.512a3.644 3.644 0 0 0-1.428-1.608 4.015 4.015 0 0 0-2.1-.552 3.92 3.92 0 0 0-3.072 1.32 5.108 5.108 0 0 0-1.172 3.528 5.108 5.108 0 0 0 1.172 3.528 3.92 3.92 0 0 0 3.072 1.32 4.015 4.015 0 0 0 2.1-.552 3.644 3.644 0 0 0 1.428-1.608h4.512a7.552 7.552 0 0 1-2.856 4.308 8.425 8.425 0 0 1-5.136 1.572 8.745 8.745 0 0 1-4.38-1.092 7.74 7.74 0 0 1-3.012-3.036 8.988 8.988 0 0 1-1.08-4.44z"/></svg>