<svg xmlns="http://www.w3.org/2000/svg" width="379" height="59"><g data-name="그룹 163205"><path data-name="패스 45702" d="M61.245 41.659a4.781 4.781 0 0 1-.592 2.358 4.354 4.354 0 0 1-1.819 1.724 6.4 6.4 0 0 1-3.045.655h-2.243v5.33h-3.617V36.878h5.86a6.667 6.667 0 0 1 3 .613 4.216 4.216 0 0 1 1.84 1.692 4.918 4.918 0 0 1 .616 2.476zm-5.732 1.861a2.158 2.158 0 0 0 1.544-.486 1.814 1.814 0 0 0 .508-1.375 1.814 1.814 0 0 0-.508-1.375 2.158 2.158 0 0 0-1.544-.486h-1.967v3.722zm19.353-6.641v2.9h-3.935v11.947h-3.616v-11.95h-3.934v-2.9zm19.691 0v14.847H90.94v-8.9l-3.321 8.9H84.7l-3.341-8.925v8.925h-3.617V36.878h4.272l4.167 10.28 4.124-10.279zm9.032 14.995a7.638 7.638 0 0 1-2.92-.529 4.758 4.758 0 0 1-2.062-1.565 4.276 4.276 0 0 1-.814-2.5h3.849a1.868 1.868 0 0 0 .571 1.258 1.836 1.836 0 0 0 1.269.434 1.985 1.985 0 0 0 1.269-.37 1.238 1.238 0 0 0 .465-1.026 1.214 1.214 0 0 0-.37-.909 2.986 2.986 0 0 0-.909-.592 14.628 14.628 0 0 0-1.533-.529 16.7 16.7 0 0 1-2.348-.888 4.338 4.338 0 0 1-1.567-1.307 3.654 3.654 0 0 1-.656-2.263 3.892 3.892 0 0 1 1.5-3.247 6.171 6.171 0 0 1 3.916-1.174 6.242 6.242 0 0 1 3.955 1.174 4.2 4.2 0 0 1 1.608 3.266h-3.913a1.53 1.53 0 0 0-.529-1.132 1.863 1.863 0 0 0-1.248-.412 1.555 1.555 0 0 0-1.058.349 1.259 1.259 0 0 0-.4 1 1.245 1.245 0 0 0 .677 1.121 11.1 11.1 0 0 0 2.114.874 19.559 19.559 0 0 1 2.334.93 4.449 4.449 0 0 1 1.555 1.29 3.454 3.454 0 0 1 .658 2.18 4.275 4.275 0 0 1-.645 2.3 4.518 4.518 0 0 1-1.868 1.654 6.408 6.408 0 0 1-2.9.613z"/><path data-name="패스 45703" d="M1.152-2.506a10.894 10.894 0 0 0 1.9 6.374h1.071a12.138 12.138 0 0 1-1.7-6.374 12.216 12.216 0 0 1 1.7-6.374H3.056a10.894 10.894 0 0 0-1.904 6.374zm4.283 4.3H6.7V-1.9h2.225a3.122 3.122 0 0 0 3.461-3.259C12.371-6.976 11.29-8.4 8.9-8.419H5.435zM6.7-3.025v-4.269h2.138c1.644.014 2.278.909 2.278 2.134a1.983 1.983 0 0 1-2.25 2.134zm6.565 2.653a2.362 2.362 0 0 0 2.625 2.336A2.386 2.386 0 0 0 18.14.753h.06v1.038h1.211v-5.047c0-2.408-1.875-2.7-2.884-2.711-1.687.014-2.884.865-3.028 2.105h1.269a1.593 1.593 0 0 1 1.7-1.038c1.168 0 1.745.562 1.73 1.529v.635c-.346 0-1.557.072-2.048.115-1.342.086-2.885.49-2.885 2.249zm1.211.058c0-.836.707-1.226 1.817-1.3l1.9-.144v.779A1.935 1.935 0 0 1 16.063.9c-.909 0-1.586-.407-1.586-1.214zm6.5 2.105h1.24v-4.816a1.791 1.791 0 0 1 1.9-1.788 2.865 2.865 0 0 1 .721.087v-1.24c-.13 0-.433-.014-.606 0A2.046 2.046 0 0 0 22.249-4.7h-.087v-1.152H20.98zm8.537-7.643H27.9V-7.7h-1.24v1.846h-1.151v1.009h1.154v4.762a1.955 1.955 0 0 0 2.105 1.961 3.251 3.251 0 0 0 .832-.058V.7a5.564 5.564 0 0 1-.721.029c-.5.014-1-.144-.981-1.125v-4.446h1.615zm4.038-1.442h3.2v9.085h1.269v-9.085h3.2v-1.125h-7.665zM42.4 1.791h1.24v-7.643H42.4zm-.231-9.72a.838.838 0 0 0 .865.808.813.813 0 0 0 .836-.808.813.813 0 0 0-.836-.808.838.838 0 0 0-.87.809zm3.014 9.72h1.24v-4.759a1.776 1.776 0 0 1 1.7-1.9 1.4 1.4 0 0 1 1.5 1.442v5.22h1.24v-4.963a1.567 1.567 0 0 1 1.673-1.7 1.408 1.408 0 0 1 1.529 1.557v5.1h1.211v-5.1c.014-1.8-.966-2.639-2.336-2.653a2.4 2.4 0 0 0-2.282 1.325h-.087a2.124 2.124 0 0 0-2.048-1.327 2.059 2.059 0 0 0-2.047 1.327h-.115v-1.212h-1.183zm14.9.173A3 3 0 0 0 63.132 0h-1.3a1.882 1.882 0 0 1-1.759.865 2.3 2.3 0 0 1-2.365-2.48h5.566v-.519c-.014-2.841-1.7-3.821-3.317-3.836-2.077.014-3.461 1.644-3.461 3.98.004 2.368 1.373 3.94 3.579 3.954zM57.71-2.65a2.256 2.256 0 0 1 2.25-2.221 2.055 2.055 0 0 1 2.076 2.221zm6.763 4.442h1.24v-4.817a1.791 1.791 0 0 1 1.9-1.788 2.864 2.864 0 0 1 .721.087v-1.24c-.13 0-.433-.014-.606 0A2.046 2.046 0 0 0 65.742-4.7h-.087v-1.152h-1.182zm8.1-10.21V1.791h1.187v-7.7h.115l3.144 7.7h1.125l3.173-7.7h.115v7.7h1.182v-10.21h-1.528L77.654-.026h-.115l-3.433-8.393zM83.984-.372a2.362 2.362 0 0 0 2.625 2.336 2.386 2.386 0 0 0 2.25-1.211h.058v1.038h1.211v-5.047c0-2.408-1.875-2.7-2.884-2.711-1.687.014-2.884.865-3.028 2.105h1.269a1.593 1.593 0 0 1 1.7-1.038c1.168 0 1.745.562 1.73 1.529v.635c-.346 0-1.557.072-2.048.115-1.34.086-2.883.49-2.883 2.249zm1.216.058c0-.836.707-1.226 1.817-1.3l1.9-.144v.779A1.935 1.935 0 0 1 86.782.9C85.874.9 85.2.493 85.2-.314zm7.744-2.48a1.867 1.867 0 0 1 1.932-2.077 1.687 1.687 0 0 1 1.73 1.9v4.762h1.211v-4.874c0-1.932-1.038-2.87-2.6-2.884A2.251 2.251 0 0 0 93-4.64h-.115v-1.212H91.7v7.643h1.24zm6.067 2.422a2.362 2.362 0 0 0 2.625 2.336 2.386 2.386 0 0 0 2.25-1.211h.058v1.038h1.211v-5.047c0-2.408-1.875-2.7-2.884-2.711-1.687.014-2.884.865-3.028 2.105h1.269a1.593 1.593 0 0 1 1.7-1.038c1.168 0 1.745.562 1.73 1.529v.635c-.346 0-1.557.072-2.048.115-1.34.086-2.883.49-2.883 2.249zm1.211.058c0-.836.707-1.226 1.817-1.3l1.9-.144v.779A1.935 1.935 0 0 1 101.808.9c-.908 0-1.586-.407-1.586-1.214zm9.619 5.134c1.875 0 3.317-.851 3.317-2.826v-7.846h-1.182v1.212h-.087a2.43 2.43 0 0 0-2.25-1.327c-1.918.014-3.259 1.471-3.259 3.836 0 2.394 1.4 3.807 3.259 3.807a2.315 2.315 0 0 0 2.221-1.3h.087v1.56c.014 1.255-.793 1.831-2.105 1.817-1.082.014-1.8-.375-1.961-1.154h-1.271c.13 1.413 1.385 2.221 3.231 2.221zM107.62-2.1c-.014-1.529.707-2.769 2.192-2.769 1.413 0 2.163 1.139 2.163 2.769 0 1.687-.779 2.7-2.163 2.711-1.457-.017-2.207-1.127-2.192-2.711zm10.34 4.067A3 3 0 0 0 121.017 0h-1.3a1.882 1.882 0 0 1-1.759.865 2.3 2.3 0 0 1-2.365-2.48h5.566v-.519c-.014-2.841-1.7-3.821-3.317-3.836-2.077.014-3.461 1.644-3.461 3.98.002 2.368 1.372 3.94 3.579 3.954zm-2.365-4.617a2.256 2.256 0 0 1 2.25-2.221 2.055 2.055 0 0 1 2.077 2.221zm6.763 4.442h1.24v-4.76a1.776 1.776 0 0 1 1.7-1.9 1.4 1.4 0 0 1 1.5 1.442v5.22h1.24v-4.963a1.567 1.567 0 0 1 1.673-1.7 1.408 1.408 0 0 1 1.529 1.557v5.1h1.211v-5.1c.014-1.8-.966-2.639-2.336-2.653a2.4 2.4 0 0 0-2.278 1.327h-.087a2.124 2.124 0 0 0-2.05-1.329 2.059 2.059 0 0 0-2.048 1.327h-.115v-1.212h-1.182zm14.9.173A3 3 0 0 0 140.312 0h-1.3a1.882 1.882 0 0 1-1.759.865 2.3 2.3 0 0 1-2.365-2.48h5.566v-.519c-.014-2.841-1.7-3.821-3.317-3.836-2.077.014-3.461 1.644-3.461 3.98.002 2.368 1.372 3.94 3.578 3.954zm-2.369-4.615a2.256 2.256 0 0 1 2.25-2.221 2.055 2.055 0 0 1 2.077 2.221zm8-.144a1.867 1.867 0 0 1 1.932-2.077 1.687 1.687 0 0 1 1.73 1.9v4.762h1.211v-4.874c0-1.932-1.038-2.87-2.6-2.884a2.251 2.251 0 0 0-2.221 1.327h-.115v-1.212h-1.182v7.643h1.24zm9.792-3.057h-1.615V-7.7h-1.24v1.846h-1.154v1.009h1.154v4.762a1.955 1.955 0 0 0 2.105 1.961 3.251 3.251 0 0 0 .836-.058V.7a5.564 5.564 0 0 1-.721.029c-.5.014-1-.144-.981-1.125v-4.446h1.615zm10.152 0h1.24c-.058-1.543-1.471-2.7-3.461-2.682-1.976-.014-3.5 1.125-3.519 2.855.014 1.37 1.009 2.192 2.625 2.653l1.24.346c1.067.3 2.019.678 2.019 1.673 0 1.11-1.053 1.831-2.452 1.846-1.226-.014-2.293-.548-2.394-1.7h-1.3c.115 1.7 1.485 2.826 3.692 2.826 2.351 0 3.677-1.283 3.692-2.942-.014-1.918-1.8-2.538-2.884-2.826l-1.038-.26c-.764-.216-1.947-.606-1.961-1.673.014-.981.894-1.687 2.25-1.673 1.218-.016 2.139.561 2.255 1.556zm3.447 10.5a2.313 2.313 0 0 0 2.307-1.759l3.23-8.739h-1.327L168.417.205h-.087l-2.105-6.057h-1.3l2.826 7.7-.231.577c-.4 1.125-.822 1.154-1.3 1.154-.2 0-.476-.014-.606-.029v1.068a3.109 3.109 0 0 0 .669.029zm10.772-8.508h1.183a2.467 2.467 0 0 0-2.74-2.105c-1.673.014-2.812.952-2.826 2.25.014 1.038.721 1.759 2.048 2.077l1.154.26c.865.2 1.255.562 1.269 1.1-.012.713-.69 1.177-1.786 1.177-.966 0-1.5-.361-1.644-1.1h-1.269c.2 1.384 1.226 2.149 2.942 2.163 1.918-.014 3-1 3-2.307 0-1.067-.678-1.745-2.048-2.077l-1.125-.288c-.909-.216-1.312-.562-1.327-1.067.014-.635.678-1.139 1.615-1.154a1.435 1.435 0 0 1 1.557 1.068zm5.9-1.99h-1.615V-7.7H180.1v1.846h-1.154v1.009h1.154v4.762a1.955 1.955 0 0 0 2.1 1.961 3.251 3.251 0 0 0 .836-.058V.7a5.564 5.564 0 0 1-.721.029c-.5.014-1-.144-.981-1.125v-4.446h1.615zm4.312 7.816A3 3 0 0 0 190.322 0h-1.3a1.882 1.882 0 0 1-1.759.865 2.3 2.3 0 0 1-2.365-2.48h5.566v-.519c-.014-2.841-1.7-3.821-3.317-3.836-2.077.014-3.461 1.644-3.461 3.98.003 2.368 1.373 3.94 3.579 3.954zM184.9-2.65a2.256 2.256 0 0 1 2.25-2.221 2.055 2.055 0 0 1 2.077 2.221zm6.763 4.442h1.24v-4.76a1.776 1.776 0 0 1 1.7-1.9 1.4 1.4 0 0 1 1.5 1.442v5.22h1.24v-4.963a1.567 1.567 0 0 1 1.673-1.7 1.408 1.408 0 0 1 1.529 1.557v5.1h1.211v-5.1c.014-1.8-.966-2.639-2.336-2.653a2.4 2.4 0 0 0-2.278 1.327h-.087a2.124 2.124 0 0 0-2.048-1.327 2.059 2.059 0 0 0-2.048 1.327h-.115v-1.214h-1.182zm14.233-4.3a10.894 10.894 0 0 0-1.9-6.374h-1.067a12.137 12.137 0 0 1 1.7 6.374 12.216 12.216 0 0 1-1.7 6.374h1.067a10.894 10.894 0 0 0 1.904-6.372z" transform="translate(118.295 48.528)" style="fill:#999"/></g><g data-name="그룹 163264"><path data-name="패스 45835" d="m365.076 196.352-2.238-3.948a4.014 4.014 0 0 0 3.06-3.864c.007-2.281-2.012-3.7-5.251-3.7h-6.288l-.069.183 1.358 1.046a.332.332 0 0 1 .121.267V199.3a.338.338 0 0 1-.125.272l-1.354 1.042.1.183h5.386l.072-.182-1.358-1.046a.333.333 0 0 1-.121-.268v-6.416h1.851l3.206 5.481a4.626 4.626 0 0 0 3.936 2.514 5.006 5.006 0 0 0 1.895-.285l.037-.184c-1.727-.339-2.342-.834-4.22-4.058m-6.707-4.49v-5.976h1.669c2.429 0 3.336 1.555 3.336 3.012a2.791 2.791 0 0 1-2.633 2.964z" transform="translate(-103.318 -182.616)" style="fill:#161615"/><path data-name="패스 45836" d="m435.164 196.352-2.238-3.948a4.01 4.01 0 0 0 3.057-3.864c.008-2.281-2.01-3.7-5.249-3.7h-6.288l-.069.183 1.357 1.046a.331.331 0 0 1 .122.267V199.3a.342.342 0 0 1-.125.272l-1.354 1.042.1.183h5.386l.072-.182-1.358-1.046a.326.326 0 0 1-.121-.268v-6.416h1.85l3.207 5.481a4.626 4.626 0 0 0 3.936 2.514 5.005 5.005 0 0 0 1.895-.285l.037-.184c-1.728-.339-2.342-.834-4.22-4.058m-6.707-4.49v-5.976h1.668c2.43 0 3.337 1.555 3.337 3.012a2.791 2.791 0 0 1-2.633 2.964z" transform="translate(-95.71 -182.616)" style="fill:#161615"/><path data-name="패스 45837" d="M412.494 184.656a8.179 8.179 0 1 0 8.252 8.177 8.224 8.224 0 0 0-8.252-8.177m5.372 8.206c0 3.951-2.41 7.165-5.372 7.165s-5.371-3.214-5.371-7.165 2.41-7.167 5.371-7.167 5.372 3.216 5.372 7.167" transform="translate(-97.896 -182.636)" style="fill:#161615"/><path data-name="패스 45838" d="M383.285 197.515a1.407 1.407 0 0 0-.017-.187c0-.03-.009-.063-.013-.1l-.029-.255-.166.2c-.086.1-.169.2-.245.283-.093.108-.18.207-.264.308l-.4.478c-.433.521-.806.882-1.254 1.406h-5.082v-6.819h4.763a.34.34 0 0 1 .273.123l1.049 1.348.182-.071v-3.961l-.182-.071-1.048 1.358a.339.339 0 0 1-.268.12h-4.764V186h4.811c.364.427.654.714 1.007 1.138l.346.413c.074.09.152.177.234.273.068.078.136.159.215.248l.166.2.029-.256c0-.033.008-.062.01-.089a1.255 1.255 0 0 0 .016-.167v-2.739l-.134-.174h-10.7l-.07.183 1.358 1.046a.332.332 0 0 1 .121.267V199.3a.332.332 0 0 1-.125.27l-1.3 1.043.068.183h11.277l.143-.187v-.038c0-.022.007-2.036 0-3.057" transform="translate(-101.424 -182.616)" style="fill:#161615"/><path data-name="패스 45839" d="M453.534 185.075v-.038l-.151-.2h-12.5l-.15.2v.038c0 .024-.006 2.224 0 3.32a1.884 1.884 0 0 0 .017.2c0 .031.009.067.013.108l.03.255.167-.2c.093-.11.18-.211.262-.3.1-.114.193-.222.284-.329l.429-.515c.487-.583.911-1.033 1.411-1.617h2.492v13.3a.335.335 0 0 1-.125.272l-1.351 1.042.066.183h5.413l.072-.182-1.358-1.046a.334.334 0 0 1-.119-.268v-13.3h2.488c.5.583.925 1.032 1.409 1.613l.433.52c.091.109.184.215.284.33l.262.3.166.2.029-.255c0-.041.009-.076.013-.109a1.621 1.621 0 0 0 .017-.2v-3.32" transform="translate(-93.935 -182.616)" style="fill:#161615"/><path data-name="패스 45840" d="M399.788 195.735a3.158 3.158 0 0 0-.916-1.72 13.607 13.607 0 0 0-3.307-2.345c-.151-.085-.3-.171-.457-.255a16.388 16.388 0 0 1-2.333-1.471 2.922 2.922 0 0 1-1.234-1.714 1.97 1.97 0 0 1 .173-1.34 2.221 2.221 0 0 1 1.883-1.164 6.468 6.468 0 0 1 2.051.127.73.73 0 0 1 .359.154c.557.643 1.009 1.106 1.545 1.752.159.19.315.378.472.569.091.108.186.215.286.33.082.094.166.194.262.3l.167.2.028-.255c0-.042.009-.078.013-.11a1.41 1.41 0 0 0 .017-.2v-3.332l-.159-.207-.045-.007c-.024 0-.57-.088-.838-.119l-.253-.029a23.345 23.345 0 0 0-1.105-.11l-.285-.02a10.984 10.984 0 0 0-3.525.14 5.288 5.288 0 0 0-1.544.627 3.581 3.581 0 0 0-1.822 3.752 3.539 3.539 0 0 0 .868 1.867 6.313 6.313 0 0 0 1.483 1.283c.658.4 1.334.785 1.988 1.16l.82.471a11.815 11.815 0 0 1 2.111 1.437 2.5 2.5 0 0 1 .958 1.777 2.33 2.33 0 0 1-.736 1.918 3.207 3.207 0 0 1-1.895.787 6.364 6.364 0 0 1-2.585-.31.852.852 0 0 1-.433-.269c-.768-.931-2.386-2.738-2.4-2.758l-.121-.143-.136.354v-.105 3.637a.271.271 0 0 0 .275.294c.147.013.294.03.443.047s.275.03.413.043c.647.055 1.29.108 1.936.16h.016c.472.038.993.071 1.54.071a10.946 10.946 0 0 0 1.454-.091 6.9 6.9 0 0 0 2.345-.709 4.159 4.159 0 0 0 1.81-1.749 3.318 3.318 0 0 0 .418-1.306l.007-.089a6.187 6.187 0 0 0 0-1.328" transform="translate(-99.536 -182.632)" style="fill:#161615"/><path data-name="패스 45841" d="M468.4 195.735a3.15 3.15 0 0 0-.916-1.72 13.623 13.623 0 0 0-3.306-2.345l-.457-.255a16.277 16.277 0 0 1-2.335-1.471 2.922 2.922 0 0 1-1.234-1.714 1.982 1.982 0 0 1 .171-1.34 2.23 2.23 0 0 1 1.886-1.164 6.47 6.47 0 0 1 2.051.127.73.73 0 0 1 .359.154c.556.643 1.009 1.106 1.546 1.752l.472.569c.091.108.184.215.285.33l.263.3.164.2.03-.255c0-.042.009-.078.013-.11a1.427 1.427 0 0 0 .018-.2v-3.332l-.161-.207-.043-.007c-.023 0-.569-.088-.838-.119l-.255-.029a23.133 23.133 0 0 0-1.1-.11l-.284-.02a11 11 0 0 0-3.527.14 5.321 5.321 0 0 0-1.545.627 3.58 3.58 0 0 0-1.821 3.752 3.54 3.54 0 0 0 .868 1.867 6.271 6.271 0 0 0 1.483 1.283c.656.4 1.334.785 1.988 1.16l.82.471a11.691 11.691 0 0 1 2.11 1.437 2.49 2.49 0 0 1 .959 1.777 2.334 2.334 0 0 1-.736 1.918 3.207 3.207 0 0 1-1.894.787 6.364 6.364 0 0 1-2.585-.31.871.871 0 0 1-.436-.269c-.766-.931-2.383-2.738-2.4-2.758l-.121-.143-.136.354v-.105 3.637a.271.271 0 0 0 .275.294c.147.013.295.03.445.047s.275.03.413.043q.968.083 1.936.16h.014c.472.038.992.071 1.54.071a10.907 10.907 0 0 0 1.453-.091 6.881 6.881 0 0 0 2.345-.709 4.147 4.147 0 0 0 1.81-1.749 3.318 3.318 0 0 0 .418-1.306l.005-.089a5.975 5.975 0 0 0 0-1.328" transform="translate(-92.088 -182.632)" style="fill:#161615"/><path data-name="패스 45842" d="m347.838 198.534-.048.079a1.5 1.5 0 0 1-1.771.541 4.437 4.437 0 0 1-1.883-1.217l-.57-.681 1.9-3.309a3.538 3.538 0 0 1 .858-1.017c.394-.3 1.24-.8 1.249-.809l.084-.049-.109-.2h-4l-.1.188.066.05c.37.284 1.074.821 1.094.835a.191.191 0 0 1 .08.166.975.975 0 0 1-.078.218c-.247.562-1.046 1.961-1.728 3.128v.008l-3.447-4.156c1.256-.62 2.274-1.257 2.274-2.537 0-1.879-1.817-2.38-2.891-2.38a2.993 2.993 0 0 0-3.1 2.227 2.78 2.78 0 0 0 1.027 2.629l.052.058c.057.062.141.159.251.287-1.591.854-3.117 1.889-3.2 4.054a3.508 3.508 0 0 0 1 2.534 4.89 4.89 0 0 0 3.389 1.471h.188a4.965 4.965 0 0 0 3.96-1.728l.355.432a3.5 3.5 0 0 0 2.755 1.17 2.552 2.552 0 0 0 2.5-1.835l.022-.1zm-10.245-5.3c.742.874 1.818 2.167 2.771 3.312.476.573.93 1.12 1.311 1.574a3.231 3.231 0 0 1-3.219 1.167 2.823 2.823 0 0 1-2.551-2.586 3.357 3.357 0 0 1 1.687-3.468m-.029-4.085a1.11 1.11 0 0 1 1.163-.855 1.133 1.133 0 0 1 1.131.644 2.207 2.207 0 0 1-.191 1.952 3.834 3.834 0 0 1-.815.728c-.143-.169-.509-.606-.934-1.122a1.612 1.612 0 0 1-.354-1.348" transform="translate(-105.537 -182.339)" style="fill:#161615"/><path data-name="패스 45843" d="M252.852 184.656a8.179 8.179 0 1 0 8.251 8.177 8.224 8.224 0 0 0-8.251-8.177m5.371 8.206c0 3.951-2.409 7.165-5.371 7.165s-5.371-3.214-5.371-7.165 2.41-7.167 5.371-7.167 5.371 3.216 5.371 7.167" transform="translate(-115.225 -182.636)" style="fill:#161615"/><path data-name="패스 45844" d="M239.182 199.3v-12.962a.334.334 0 0 1 .123-.27l1.354-1.043-.07-.183h-5.414l-.068.183 1.356 1.046a.328.328 0 0 1 .122.267v5.5h-7.126v-5.5a.334.334 0 0 1 .123-.27l1.354-1.043-.071-.183h-5.413l-.069.183 1.357 1.046a.332.332 0 0 1 .121.267V199.3a.338.338 0 0 1-.125.272l-1.352 1.042.069.183h5.413l.071-.182-1.359-1.048a.333.333 0 0 1-.118-.267v-6.31h7.125v6.31a.334.334 0 0 1-.126.272l-1.351 1.042.068.183h5.414l.07-.182-1.358-1.048a.328.328 0 0 1-.119-.267" transform="translate(-117.312 -182.616)" style="fill:#161615"/><path data-name="패스 45845" d="M292.806 197.515a1.581 1.581 0 0 0-.016-.187l-.013-.1-.029-.255-.166.2c-.088.1-.167.2-.245.283-.093.108-.18.207-.264.308l-.4.478c-.435.521-.807.882-1.255 1.406h-5.082v-6.819h4.763a.337.337 0 0 1 .272.123l1.043 1.354.183-.071v-3.961l-.183-.071-1.048 1.358a.334.334 0 0 1-.267.12h-4.765v-5.675h4.812c.364.427.653.714 1.007 1.138l.345.413c.074.09.152.177.234.273l.216.248.165.2.03-.256c0-.033.007-.062.011-.089a1.422 1.422 0 0 0 .013-.167v-2.739l-.133-.174h-10.7l-.07.183 1.357 1.046a.328.328 0 0 1 .121.267V199.3a.329.329 0 0 1-.125.27l-1.3 1.043.069.183h11.276l.144-.187v-3.095" transform="translate(-111.245 -182.616)" style="fill:#161615"/><path data-name="패스 45846" d="M276.775 185.075v-.038l-.151-.2h-12.5l-.151.2v3.358a1.892 1.892 0 0 0 .017.2c0 .031.009.067.013.108l.029.255.166-.2c.094-.11.181-.211.264-.3.1-.114.192-.222.284-.329l.429-.515c.486-.583.91-1.033 1.411-1.617h2.491v13.3a.334.334 0 0 1-.126.272l-1.351 1.042.069.183h5.412l.071-.182-1.357-1.046a.33.33 0 0 1-.12-.268v-13.3h2.489c.5.583.923 1.032 1.408 1.613l.433.52c.091.109.184.215.284.33l.263.3.166.2.029-.255c0-.041.009-.076.013-.109a1.621 1.621 0 0 0 .017-.2v-3.32" transform="translate(-113.123 -182.616)" style="fill:#161615"/><path data-name="패스 45847" d="M311.168 197.49a1.421 1.421 0 0 0-.017-.19c0-.03-.009-.063-.013-.1l-.029-.255-.166.2c-.089.1-.169.2-.247.285-.093.109-.182.208-.266.312l-.4.479c-.44.528-.818.9-1.274 1.429h-5.972v-13.305a.333.333 0 0 1 .125-.27l1.354-1.043-.072-.183h-5.412l-.069.183 1.357 1.046a.336.336 0 0 1 .121.267V199.3a.342.342 0 0 1-.125.272l-1.3 1.042.069.183h12.192l.145-.188v-3.12" transform="translate(-109.352 -182.616)" style="fill:#161615"/><path data-name="패스 45848" d="M325.642 195.735a3.16 3.16 0 0 0-.917-1.72 13.6 13.6 0 0 0-3.306-2.345l-.457-.255a16.4 16.4 0 0 1-2.335-1.471 2.922 2.922 0 0 1-1.234-1.714 1.982 1.982 0 0 1 .171-1.34 2.232 2.232 0 0 1 1.887-1.164 6.465 6.465 0 0 1 2.05.127.73.73 0 0 1 .359.154c.557.643 1.01 1.106 1.546 1.752.159.19.314.378.472.569.091.108.184.215.284.33l.264.3.166.2.029-.255c0-.042.008-.078.012-.11a1.418 1.418 0 0 0 .018-.2v-3.332l-.16-.207-.044-.007c-.023 0-.569-.088-.837-.119l-.256-.029a23.133 23.133 0 0 0-1.1-.11l-.286-.02a10.985 10.985 0 0 0-3.525.14 5.3 5.3 0 0 0-1.545.627 3.58 3.58 0 0 0-1.821 3.752 3.533 3.533 0 0 0 .869 1.867 6.242 6.242 0 0 0 1.482 1.283c.656.4 1.335.785 1.988 1.16q.411.234.819.471a11.66 11.66 0 0 1 2.111 1.437 2.5 2.5 0 0 1 .959 1.777 2.337 2.337 0 0 1-.736 1.918 3.207 3.207 0 0 1-1.894.787 6.364 6.364 0 0 1-2.585-.31.864.864 0 0 1-.435-.269c-.767-.931-2.385-2.738-2.4-2.758l-.122-.143-.136.354v-.105 3.637a.271.271 0 0 0 .275.294c.147.013.295.03.445.047s.275.03.414.043q.968.083 1.936.16h.016c.471.038.991.071 1.539.071a10.962 10.962 0 0 0 1.456-.091 6.884 6.884 0 0 0 2.342-.709 4.147 4.147 0 0 0 1.81-1.749 3.325 3.325 0 0 0 .42-1.306v-.089a6.111 6.111 0 0 0 0-1.328" transform="translate(-107.585 -182.632)" style="fill:#161615"/><path data-name="패스 45849" d="M214.294 184.86h-3.965l-.068.183 1.359 1.05a.328.328 0 0 1 .118.265v10.084c-1.287-1.61-8.515-10.627-9.1-11.355a.521.521 0 0 0-.459-.229h-3.572l-.071.188 2.073 1.674a.328.328 0 0 1 .121.266V199.3a.328.328 0 0 1-.126.269l-1.352 1.044.073.182h3.965l.072-.182-1.362-1.046a.336.336 0 0 1-.122-.267v-11.007c.784.974 9.326 11.493 9.854 12.134a.886.886 0 0 0 .751.364.447.447 0 0 0 .3-.111.338.338 0 0 0 .1-.251v-14.076a.326.326 0 0 1 .124-.269l1.351-1.045z" transform="translate(-120.226 -182.614)" style="fill:#161615"/><path data-name="패스 45850" d="M174.6 195.735a3.182 3.182 0 0 0-.917-1.72 13.628 13.628 0 0 0-3.307-2.345l-.457-.255a16.273 16.273 0 0 1-2.335-1.471 2.931 2.931 0 0 1-1.234-1.714 1.976 1.976 0 0 1 .172-1.34 2.228 2.228 0 0 1 1.886-1.164 6.474 6.474 0 0 1 2.051.127.743.743 0 0 1 .359.154c.555.643 1.009 1.106 1.544 1.752.159.19.317.378.474.569.09.108.184.215.284.33l.262.3.166.2.03-.255c0-.042.009-.078.013-.11a1.587 1.587 0 0 0 .017-.2v-3.332l-.16-.207-.044-.007c-.023 0-.57-.088-.837-.119l-.255-.029a23.397 23.397 0 0 0-1.1-.11l-.286-.02a10.99 10.99 0 0 0-3.526.14 5.313 5.313 0 0 0-1.544.627 3.579 3.579 0 0 0-1.821 3.752 3.54 3.54 0 0 0 .868 1.867 6.249 6.249 0 0 0 1.483 1.283c.656.4 1.332.785 1.987 1.16l.82.471a11.736 11.736 0 0 1 2.111 1.437 2.493 2.493 0 0 1 .958 1.777 2.336 2.336 0 0 1-.735 1.918 3.213 3.213 0 0 1-1.9.787 6.368 6.368 0 0 1-2.585-.31.856.856 0 0 1-.433-.269c-.768-.931-2.384-2.738-2.4-2.758l-.121-.143-.136.354v-.105 3.637a.271.271 0 0 0 .274.294c.149.013.3.03.445.047s.274.03.412.043q.971.083 1.936.16h.016c.473.038.993.071 1.54.071a10.946 10.946 0 0 0 1.454-.091 6.9 6.9 0 0 0 2.345-.709 4.147 4.147 0 0 0 1.81-1.749 3.318 3.318 0 0 0 .418-1.306l.007-.089a6.258 6.258 0 0 0 0-1.328" transform="translate(-123.98 -182.632)" style="fill:#161615"/><path data-name="패스 45851" d="M150.672 184.656a8.179 8.179 0 1 0 8.251 8.177 8.224 8.224 0 0 0-8.251-8.177m5.37 8.206c0 3.951-2.408 7.165-5.37 7.165s-5.372-3.214-5.372-7.165 2.41-7.167 5.372-7.167 5.37 3.216 5.37 7.167" transform="translate(-126.317 -182.636)" style="fill:#161615"/><path data-name="패스 45852" d="M194.754 184.841h-3.961l-.072.183 1.358 1.046a.332.332 0 0 1 .121.267v8.993a6.08 6.08 0 0 1-.409 2.411 3.322 3.322 0 0 1-1.207 1.468 4.006 4.006 0 0 1-1.883.636 5.945 5.945 0 0 1-2.883-.341 2.98 2.98 0 0 1-1.4-1.179 4.642 4.642 0 0 1-.671-2.458c-.009-1.192-.021-8.033-.021-9.529a.333.333 0 0 1 .124-.27l1.354-1.043-.071-.183h-5.519l-.069.183 1.357 1.046a.332.332 0 0 1 .121.267c0 1.015-.006 5.667-.008 7.322v1.321a7.46 7.46 0 0 0 .386 2.636 4.607 4.607 0 0 0 .829 1.452 4.889 4.889 0 0 0 1.9 1.34 7.328 7.328 0 0 0 2.161.513c.4.032.773.05 1.131.05a8.616 8.616 0 0 0 2.3-.285 5.187 5.187 0 0 0 1.849-.889 4.558 4.558 0 0 0 1.675-3.085 11.514 11.514 0 0 0 .116-1.717v-8.659a.333.333 0 0 1 .124-.27l1.354-1.043z" transform="translate(-122.288 -182.616)" style="fill:#161615"/><path data-name="패스 45853" d="M136.747 184.862h-5.464l-.076.182 1.361 1.049a.334.334 0 0 1 .119.267v6.325c0 3.184-.006 6.475 0 7.293.006 2-1.042 3.5-3.2 4.482l-.093.041.084.143.086-.008a7.293 7.293 0 0 0 2.878-.8 5.221 5.221 0 0 0 2.906-4.8V186.36a.331.331 0 0 1 .124-.272l1.352-1.043z" transform="translate(-127.732 -182.614)" style="fill:#161615"/></g></svg>