<svg xmlns="http://www.w3.org/2000/svg" width="385" height="38"><g data-name="그룹 163205"><path data-name="패스 45702" d="M126.439 16.744a4.607 4.607 0 0 1-.571 2.273 4.2 4.2 0 0 1-1.752 1.657 6.171 6.171 0 0 1-2.935.632h-2.161v5.14h-3.485V12.138h5.646a6.425 6.425 0 0 1 2.894.591 4.062 4.062 0 0 1 1.773 1.631 4.739 4.739 0 0 1 .591 2.384zm-5.523 1.794a2.079 2.079 0 0 0 1.488-.469 1.748 1.748 0 0 0 .491-1.325 1.748 1.748 0 0 0-.489-1.325 2.079 2.079 0 0 0-1.488-.469h-1.9v3.587zm18.649-6.4v2.792h-3.791v11.516h-3.485V14.93h-3.794v-2.792zm18.975 0v14.308h-3.485v-8.581l-3.2 8.581h-2.812l-3.22-8.6v8.6h-3.486V12.138h4.117l4.015 9.906 3.974-9.906zm8.704 14.45a7.36 7.36 0 0 1-2.813-.514 4.585 4.585 0 0 1-1.987-1.5 4.121 4.121 0 0 1-.785-2.405h3.709a1.8 1.8 0 0 0 .55 1.213 1.769 1.769 0 0 0 1.223.418 1.913 1.913 0 0 0 1.223-.357 1.193 1.193 0 0 0 .448-.989 1.17 1.17 0 0 0-.357-.876 2.877 2.877 0 0 0-.876-.571 14.1 14.1 0 0 0-1.478-.51 16.09 16.09 0 0 1-2.262-.856 4.18 4.18 0 0 1-1.507-1.267 3.521 3.521 0 0 1-.637-2.18 3.75 3.75 0 0 1 1.447-3.129 5.946 5.946 0 0 1 3.771-1.131 6.015 6.015 0 0 1 3.811 1.131 4.049 4.049 0 0 1 1.554 3.149h-3.771a1.475 1.475 0 0 0-.51-1.09 1.8 1.8 0 0 0-1.2-.4 1.5 1.5 0 0 0-1.019.336 1.213 1.213 0 0 0-.387.968 1.2 1.2 0 0 0 .652 1.08 10.691 10.691 0 0 0 2.038.836 18.849 18.849 0 0 1 2.252.9 4.287 4.287 0 0 1 1.5 1.243 3.328 3.328 0 0 1 .632 2.1 4.12 4.12 0 0 1-.622 2.222 4.354 4.354 0 0 1-1.8 1.59 6.175 6.175 0 0 1-2.799.589z"/><path data-name="패스 45703" d="M1.152-2.738A10.5 10.5 0 0 0 2.986 3.4h1.029a11.7 11.7 0 0 1-1.64-6.142 11.772 11.772 0 0 1 1.64-6.138H2.986a10.5 10.5 0 0 0-1.834 6.142zM5.279 1.4H6.5v-3.554h2.14a3.009 3.009 0 0 0 3.335-3.141c-.014-1.751-1.056-3.127-3.363-3.141H5.279zM6.5-3.238v-4.113h2.059c1.584.014 2.2.875 2.2 2.057a1.911 1.911 0 0 1-2.172 2.056zm6.325 2.557a2.276 2.276 0 0 0 2.529 2.251A2.3 2.3 0 0 0 17.522.4h.056v1h1.167v-4.86a2.468 2.468 0 0 0-2.779-2.613c-1.626.014-2.779.834-2.918 2.029h1.222a1.535 1.535 0 0 1 1.64-1c1.126 0 1.681.542 1.668 1.473v.611c-.334 0-1.5.069-1.973.111-1.293.083-2.78.473-2.78 2.168zm1.167.056c0-.806.681-1.181 1.751-1.251l1.834-.139v.75A1.865 1.865 0 0 1 15.521.542c-.875 0-1.529-.389-1.529-1.167zM20.26 1.4h1.2v-4.638a1.726 1.726 0 0 1 1.834-1.723 2.76 2.76 0 0 1 .695.083v-1.2c-.125 0-.417-.014-.584 0a1.972 1.972 0 0 0-1.922 1.228H21.4v-1.112h-1.14zm8.227-7.365H26.93V-7.74h-1.2v1.779h-1.107v.973h1.112V-.4a1.884 1.884 0 0 0 2.029 1.89 3.133 3.133 0 0 0 .806-.056V.347a5.361 5.361 0 0 1-.695.028c-.486.014-.959-.139-.945-1.084v-4.28h1.556zm3.891-1.39h3.085V1.4h1.223v-8.751h3.084v-1.084h-7.392zM40.9 1.4h1.2v-7.362h-1.2zm-.222-9.366a.808.808 0 0 0 .834.778.783.783 0 0 0 .806-.778.783.783 0 0 0-.806-.778.808.808 0 0 0-.838.781zm2.9 9.366h1.2v-4.582a1.712 1.712 0 0 1 1.64-1.834 1.35 1.35 0 0 1 1.445 1.39V1.4h1.2v-4.78a1.51 1.51 0 0 1 1.612-1.64 1.357 1.357 0 0 1 1.473 1.5V1.4h1.167v-4.916c.014-1.737-.931-2.543-2.251-2.557a2.312 2.312 0 0 0-2.2 1.278h-.083A2.047 2.047 0 0 0 46.8-6.073a1.984 1.984 0 0 0-1.973 1.278h-.111v-1.167h-1.14zm14.355.167A2.892 2.892 0 0 0 60.879-.32h-1.25a1.814 1.814 0 0 1-1.7.834 2.218 2.218 0 0 1-2.279-2.39h5.364v-.5c-.014-2.738-1.64-3.683-3.2-3.7-2 .014-3.335 1.584-3.335 3.835.008 2.283 1.328 3.797 3.454 3.811zm-2.279-4.444a2.174 2.174 0 0 1 2.168-2.14 1.98 1.98 0 0 1 2 2.14zM62.172 1.4h1.2v-4.638A1.726 1.726 0 0 1 65.2-4.961a2.76 2.76 0 0 1 .695.083v-1.2c-.125 0-.417-.014-.584 0a1.972 1.972 0 0 0-1.916 1.228h-.083v-1.112h-1.14zm7.81-9.839V1.4h1.14v-7.417h.111L74.262 1.4h1.084L78.4-6.017h.111V1.4h1.139v-9.835h-1.47L74.873-.348h-.111l-3.307-8.087zM80.974-.681A2.276 2.276 0 0 0 83.5 1.57 2.3 2.3 0 0 0 85.671.4h.056v1h1.167v-4.86a2.468 2.468 0 0 0-2.779-2.613c-1.626.014-2.779.834-2.918 2.029h1.223a1.535 1.535 0 0 1 1.64-1c1.126 0 1.681.542 1.668 1.473v.611c-.334 0-1.5.069-1.973.111-1.294.083-2.781.473-2.781 2.168zm1.167.056c0-.806.681-1.181 1.751-1.251l1.834-.139v.75A1.865 1.865 0 0 1 83.67.542c-.876 0-1.529-.389-1.529-1.167zM89.6-3.016a1.8 1.8 0 0 1 1.862-2 1.626 1.626 0 0 1 1.668 1.834V1.4h1.17v-4.7c0-1.862-1-2.765-2.5-2.779a2.169 2.169 0 0 0-2.14 1.278h-.111v-1.161h-1.14V1.4h1.2zm5.85 2.335a2.276 2.276 0 0 0 2.533 2.251A2.3 2.3 0 0 0 100.151.4h.056v1h1.167v-4.86a2.468 2.468 0 0 0-2.779-2.613c-1.626.014-2.779.834-2.918 2.029H96.9a1.535 1.535 0 0 1 1.64-1c1.126 0 1.681.542 1.668 1.473v.611c-.334 0-1.5.069-1.973.111-1.294.083-2.781.473-2.781 2.168zm1.167.056c0-.806.681-1.181 1.751-1.251l1.834-.139v.75A1.865 1.865 0 0 1 98.15.542c-.876 0-1.529-.389-1.529-1.167zm9.269 4.947c1.807 0 3.2-.82 3.2-2.724v-7.56h-1.139v1.167h-.083a2.342 2.342 0 0 0-2.164-1.278c-1.848.014-3.141 1.417-3.141 3.7 0 2.307 1.348 3.669 3.141 3.669a2.231 2.231 0 0 0 2.14-1.251h.083v1.5c.014 1.209-.764 1.765-2.029 1.751-1.042.014-1.737-.361-1.89-1.112h-1.223c.119 1.36 1.33 2.138 3.109 2.138zm-2.14-6.67c-.014-1.473.681-2.668 2.112-2.668 1.362 0 2.084 1.1 2.084 2.668 0 1.626-.75 2.6-2.084 2.613-1.399-.015-2.122-1.085-2.108-2.614zm9.964 3.919a2.892 2.892 0 0 0 2.95-1.891h-1.251a1.814 1.814 0 0 1-1.7.834 2.218 2.218 0 0 1-2.279-2.39h5.37v-.5c-.014-2.738-1.64-3.683-3.2-3.7-2 .014-3.335 1.584-3.335 3.835.003 2.283 1.323 3.797 3.449 3.811zm-2.279-4.447a2.174 2.174 0 0 1 2.168-2.14 1.98 1.98 0 0 1 2 2.14zm6.517 4.28h1.2v-4.586a1.712 1.712 0 0 1 1.64-1.834 1.35 1.35 0 0 1 1.445 1.39V1.4h1.2v-4.78a1.51 1.51 0 0 1 1.612-1.64 1.357 1.357 0 0 1 1.473 1.5V1.4h1.167v-4.916c.014-1.737-.931-2.543-2.251-2.557a2.312 2.312 0 0 0-2.2 1.278h-.083a2.047 2.047 0 0 0-1.973-1.278 1.984 1.984 0 0 0-1.978 1.279h-.111v-1.168h-1.14zm14.355.167a2.892 2.892 0 0 0 2.946-1.89H134a1.814 1.814 0 0 1-1.7.834 2.218 2.218 0 0 1-2.279-2.39h5.364v-.5c-.014-2.738-1.64-3.683-3.2-3.7-2 .014-3.335 1.584-3.335 3.835.011 2.282 1.331 3.796 3.457 3.81zm-2.279-4.447a2.174 2.174 0 0 1 2.168-2.14 1.98 1.98 0 0 1 2 2.14zm7.713-.139a1.8 1.8 0 0 1 1.862-2 1.626 1.626 0 0 1 1.668 1.834V1.4h1.167v-4.7c0-1.862-1-2.765-2.5-2.779a2.169 2.169 0 0 0-2.14 1.278h-.111v-1.161h-1.14V1.4h1.2zm9.436-2.946h-1.553V-7.74h-1.2v1.779h-1.112v.973h1.112V-.4a1.884 1.884 0 0 0 2.029 1.89 3.133 3.133 0 0 0 .806-.056V.347a5.361 5.361 0 0 1-.695.028c-.486.014-.959-.139-.945-1.084v-4.28h1.556zm9.783 0h1.2c-.056-1.487-1.417-2.6-3.335-2.585-1.9-.014-3.377 1.084-3.391 2.752.014 1.32.973 2.112 2.529 2.557l1.2.334c1.028.292 1.946.653 1.946 1.612 0 1.07-1.014 1.765-2.362 1.779-1.181-.014-2.21-.528-2.307-1.64h-1.251c.111 1.64 1.431 2.724 3.558 2.724 2.265 0 3.544-1.237 3.558-2.835-.014-1.848-1.737-2.446-2.779-2.724l-1-.25c-.737-.208-1.876-.584-1.89-1.612.014-.945.862-1.626 2.168-1.612 1.159-.015 2.049.54 2.16 1.499zm3.321 10.117a2.229 2.229 0 0 0 2.223-1.7l3.113-8.421h-1.278l-2 5.837h-.083l-2.029-5.837h-1.251l2.728 7.424-.222.556c-.389 1.084-.792 1.112-1.251 1.112-.195 0-.459-.014-.584-.028v1.028a3 3 0 0 0 .638.028zm10.381-8.2h1.14a2.377 2.377 0 0 0-2.64-2.029c-1.612.014-2.71.917-2.724 2.168.014 1 .695 1.7 1.973 2l1.112.25c.834.195 1.209.542 1.223 1.056-.014.695-.667 1.14-1.723 1.14-.931 0-1.445-.347-1.584-1.056h-1.223C166.41.82 167.4 1.556 169.05 1.57c1.848-.014 2.89-.959 2.89-2.223 0-1.028-.653-1.681-1.973-2l-1.084-.278c-.875-.208-1.265-.542-1.279-1.028.014-.611.653-1.1 1.556-1.112a1.383 1.383 0 0 1 1.502 1.027zm5.684-1.918h-1.556V-7.74h-1.2v1.779h-1.112v.973h1.112V-.4a1.884 1.884 0 0 0 2.029 1.89 3.133 3.133 0 0 0 .806-.056V.347a5.361 5.361 0 0 1-.695.028c-.486.014-.959-.139-.945-1.084v-4.28h1.556zM180.5 1.57a2.892 2.892 0 0 0 2.946-1.89H182.2a1.814 1.814 0 0 1-1.7.834 2.218 2.218 0 0 1-2.279-2.39h5.364v-.5c-.014-2.738-1.64-3.683-3.2-3.7-2 .014-3.335 1.584-3.335 3.835.004 2.283 1.324 3.797 3.45 3.811zm-2.279-4.447a2.174 2.174 0 0 1 2.168-2.14 1.98 1.98 0 0 1 2 2.14zm6.518 4.28h1.2v-4.585a1.712 1.712 0 0 1 1.64-1.834 1.35 1.35 0 0 1 1.445 1.39V1.4h1.2v-4.78a1.51 1.51 0 0 1 1.612-1.64 1.357 1.357 0 0 1 1.473 1.5V1.4h1.167v-4.916c.014-1.737-.931-2.543-2.251-2.557a2.312 2.312 0 0 0-2.2 1.278h-.083a2.047 2.047 0 0 0-1.973-1.278 1.984 1.984 0 0 0-1.973 1.278h-.111v-1.167h-1.139zm13.716-4.141a10.5 10.5 0 0 0-1.834-6.142h-1.028a11.7 11.7 0 0 1 1.64 6.142 11.772 11.772 0 0 1-1.64 6.142h1.028a10.5 10.5 0 0 0 1.834-6.142z" transform="translate(181.375 23.687)" style="fill:#999"/></g><path transform="translate(94 3)" style="fill:#999" d="M0 0h1v32H0z"/><g data-name="logo"><path data-name="패스 45816" d="m215.623 448.946-1.17-2.062a2.1 2.1 0 0 0 1.6-2.019c0-1.192-1.051-1.933-2.744-1.933h-3.285l-.036.1.709.546a.176.176 0 0 1 .063.14v6.773a.177.177 0 0 1-.065.142l-.707.545.05.1h2.815l.037-.1-.709-.547a.175.175 0 0 1-.063-.14v-3.352h.967l1.677 2.861a2.417 2.417 0 0 0 2.056 1.314 2.621 2.621 0 0 0 .99-.149l.019-.1c-.9-.178-1.224-.435-2.2-2.121m-3.5-2.345v-3.123h.872a1.548 1.548 0 0 1 1.743 1.573 1.459 1.459 0 0 1-1.375 1.549z" transform="translate(-207.998 -415.248)" style="fill:#1d1d1b"/><path data-name="패스 45817" d="m320.474 448.946-1.17-2.062a2.1 2.1 0 0 0 1.6-2.019c0-1.192-1.05-1.933-2.742-1.933h-3.285l-.036.1.71.546a.177.177 0 0 1 .063.14v6.773a.177.177 0 0 1-.065.142l-.707.545.05.1h2.808l.037-.1-.709-.547a.17.17 0 0 1-.063-.14v-3.352h.967l1.681 2.861a2.418 2.418 0 0 0 2.057 1.314 2.617 2.617 0 0 0 .99-.149l.02-.1c-.9-.178-1.224-.435-2.2-2.121m-3.505-2.345v-3.123h.872a1.548 1.548 0 0 1 1.743 1.573 1.459 1.459 0 0 1-1.376 1.549z" transform="translate(-270.22 -415.248)" style="fill:#1d1d1b"/><path data-name="패스 45818" d="M289.464 442.668a4.273 4.273 0 1 0 4.311 4.273 4.3 4.3 0 0 0-4.311-4.273m2.807 4.288c0 2.064-1.259 3.744-2.807 3.744s-2.807-1.68-2.807-3.744 1.259-3.745 2.807-3.745 2.807 1.68 2.807 3.745" transform="translate(-252.604 -415.092)" style="fill:#1d1d1b"/><path data-name="패스 45819" d="M241.881 449.554a.668.668 0 0 0-.009-.1c0-.016 0-.033-.007-.052l-.015-.133-.087.1c-.046.054-.088.1-.128.148s-.094.108-.138.161l-.208.249c-.226.272-.421.461-.655.735h-2.655V447.1h2.489a.178.178 0 0 1 .143.064l.545.707.1-.037v-2.07l-.1-.037-.548.709a.176.176 0 0 1-.14.063h-2.488v-2.965h2.514c.19.223.341.373.526.6l.181.216c.039.047.079.093.122.142l.112.13.087.1.015-.133c0-.017 0-.033.006-.046a.688.688 0 0 0 .008-.087v-1.431l-.07-.091h-5.593l-.036.1.709.547a.173.173 0 0 1 .063.14v6.773a.174.174 0 0 1-.065.141l-.68.545.035.1h5.886l.074-.1v-1.62" transform="translate(-223.345 -415.248)" style="fill:#1d1d1b"/><path data-name="패스 45820" d="M345.82 443.054v-.02l-.079-.1h-6.534l-.078.1v1.754a1.016 1.016 0 0 0 .009.105c0 .016 0 .035.007.057l.016.133.087-.1.137-.159.148-.172.224-.269c.255-.3.476-.54.737-.845h1.3v6.951a.173.173 0 0 1-.066.142l-.706.545.035.1h2.828l.037-.1-.709-.547a.175.175 0 0 1-.062-.14v-6.951h1.3c.261.3.483.539.736.843l.226.272c.047.057.1.113.148.172l.137.159.087.1.015-.133c0-.022 0-.04.007-.057a.757.757 0 0 0 .009-.1v-1.735" transform="translate(-284.634 -415.248)" style="fill:#1d1d1b"/><path data-name="패스 45821" d="M267.194 448.492a1.648 1.648 0 0 0-.479-.9 7.146 7.146 0 0 0-1.727-1.225l-.239-.133a8.621 8.621 0 0 1-1.22-.768 1.528 1.528 0 0 1-.645-.9 1.027 1.027 0 0 1 .091-.7 1.16 1.16 0 0 1 .984-.608 3.382 3.382 0 0 1 1.071.066.387.387 0 0 1 .188.08c.291.336.527.579.807.915l.247.3c.048.057.1.113.149.172l.137.159.087.1.015-.133c0-.022 0-.04.007-.057a.747.747 0 0 0 .009-.1v-1.741l-.083-.108h-.024c-.013 0-.3-.046-.438-.062l-.133-.015c-.189-.022-.383-.045-.577-.058l-.149-.01a5.749 5.749 0 0 0-1.842.073 2.768 2.768 0 0 0-.807.328 1.872 1.872 0 0 0-.953 1.961 1.846 1.846 0 0 0 .454.975 3.29 3.29 0 0 0 .775.67c.344.209.7.411 1.039.606l.429.246a6.166 6.166 0 0 1 1.1.75 1.305 1.305 0 0 1 .5.928 1.217 1.217 0 0 1-.385 1 1.676 1.676 0 0 1-.99.411 3.326 3.326 0 0 1-1.351-.162.445.445 0 0 1-.226-.141 61.439 61.439 0 0 0-1.256-1.441l-.063-.074-.071.185v-.055 1.9a.142.142 0 0 0 .144.153l.232.024.216.022 1.012.084h.008c.247.02.52.037.8.037a5.761 5.761 0 0 0 .76-.047 3.618 3.618 0 0 0 1.225-.371 2.18 2.18 0 0 0 .946-.914 1.738 1.738 0 0 0 .218-.682v-.046a3.252 3.252 0 0 0 0-.694" transform="translate(-238.643 -415.125)" style="fill:#1d1d1b"/><path data-name="패스 45822" d="M369.942 448.492a1.653 1.653 0 0 0-.479-.9 7.145 7.145 0 0 0-1.728-1.225l-.239-.133a8.554 8.554 0 0 1-1.22-.768 1.526 1.526 0 0 1-.645-.9 1.034 1.034 0 0 1 .089-.7 1.164 1.164 0 0 1 .985-.608 3.386 3.386 0 0 1 1.072.066.384.384 0 0 1 .187.08c.291.336.527.579.808.915l.247.3c.048.057.1.113.149.172l.137.159.086.1.016-.133c0-.022 0-.04.007-.057a.747.747 0 0 0 .009-.1v-1.741l-.084-.108h-.022c-.013 0-.3-.046-.438-.062l-.133-.015c-.188-.022-.384-.045-.576-.058l-.148-.01a5.756 5.756 0 0 0-1.843.073 2.788 2.788 0 0 0-.808.328 1.871 1.871 0 0 0-.951 1.961 1.846 1.846 0 0 0 .454.975 3.259 3.259 0 0 0 .775.67c.343.209.7.411 1.038.606l.429.246a6.11 6.11 0 0 1 1.1.75 1.3 1.3 0 0 1 .5.928 1.22 1.22 0 0 1-.385 1 1.677 1.677 0 0 1-.99.411 3.323 3.323 0 0 1-1.351-.162.453.453 0 0 1-.228-.141 59.766 59.766 0 0 0-1.255-1.441l-.063-.074-.072.185v-.055 1.9a.142.142 0 0 0 .143.153l.232.024.216.022 1.012.084h.008c.247.02.518.037.8.037a5.73 5.73 0 0 0 .759-.047 3.6 3.6 0 0 0 1.225-.371 2.167 2.167 0 0 0 .946-.914 1.718 1.718 0 0 0 .218-.682v-.046a3.19 3.19 0 0 0 0-.694" transform="translate(-299.617 -415.125)" style="fill:#1d1d1b"/><path data-name="패스 45823" d="m375.119 420.156-.025.041a.782.782 0 0 1-.925.283 2.314 2.314 0 0 1-.984-.636l-.3-.356.991-1.728a1.85 1.85 0 0 1 .448-.531c.206-.155.648-.42.653-.423l.044-.025-.056-.1h-2.09l-.053.1.035.026.571.436a.1.1 0 0 1 .042.087.517.517 0 0 1-.041.114c-.129.293-.546 1.025-.9 1.634l-1.8-2.171c.656-.324 1.188-.657 1.188-1.326 0-.981-.949-1.244-1.51-1.244a1.564 1.564 0 0 0-1.618 1.164 1.452 1.452 0 0 0 .536 1.374l.027.03c.029.032.074.083.131.15a2.518 2.518 0 0 0-1.671 2.118 1.831 1.831 0 0 0 .52 1.324 2.557 2.557 0 0 0 1.77.769h.1a2.6 2.6 0 0 0 2.069-.9l.185.225a1.828 1.828 0 0 0 1.439.611 1.333 1.333 0 0 0 1.309-.958l.011-.05zm-5.353-2.768c.388.457.95 1.133 1.448 1.731l.686.823a1.688 1.688 0 0 1-1.682.609 1.475 1.475 0 0 1-1.333-1.351 1.754 1.754 0 0 1 .881-1.812m-.015-2.134a.58.58 0 0 1 .608-.446.592.592 0 0 1 .59.336 1.15 1.15 0 0 1-.1 1.02 2.012 2.012 0 0 1-.425.381 78.819 78.819 0 0 1-.489-.586.846.846 0 0 1-.185-.7" transform="translate(-301.654 -398.278)" style="fill:#1d1d1b"/><path data-name="패스 45824" d="M242.978 410.434a4.274 4.274 0 1 0 4.311 4.273 4.3 4.3 0 0 0-4.311-4.273m2.806 4.288c0 2.065-1.259 3.744-2.806 3.744s-2.807-1.679-2.807-3.744 1.259-3.745 2.807-3.745 2.806 1.68 2.806 3.745" transform="translate(-225.017 -395.963)" style="fill:#1d1d1b"/><path data-name="패스 45825" d="M216.492 418.253v-6.773a.173.173 0 0 1 .065-.142l.707-.545-.037-.1H214.4l-.036.1.709.547a.173.173 0 0 1 .063.14v2.873h-3.726v-2.873a.174.174 0 0 1 .064-.142l.707-.545-.037-.1h-2.828l-.036.1.709.547a.172.172 0 0 1 .063.14v6.773a.173.173 0 0 1-.066.142l-.706.545.036.1h2.828l.037-.1-.71-.547a.176.176 0 0 1-.061-.14v-3.297h3.723v3.297a.171.171 0 0 1-.066.142l-.706.545.036.1h2.829l.037-.1-.71-.547a.173.173 0 0 1-.062-.14" transform="translate(-207.578 -396.12)" style="fill:#1d1d1b"/><path data-name="패스 45826" d="M298.928 417.321a.872.872 0 0 0-.008-.1c0-.015 0-.032-.007-.052l-.015-.133-.087.1-.128.148a8.126 8.126 0 0 0-.138.161l-.208.249c-.227.272-.422.462-.655.735h-2.655v-3.564h2.489a.173.173 0 0 1 .141.065l.545.707.1-.037v-2.069l-.1-.037-.547.709a.173.173 0 0 1-.139.063h-2.49v-2.965h2.514c.19.223.341.373.526.595l.18.216.122.143.113.13.087.1.015-.133c0-.018 0-.033.006-.047a.76.76 0 0 0 .007-.087v-1.43l-.07-.092h-5.593l-.036.1.709.547a.173.173 0 0 1 .063.14v6.773a.172.172 0 0 1-.065.142l-.68.545.036.1h5.892l.075-.1v-1.62" transform="translate(-257.199 -396.12)" style="fill:#1d1d1b"/><path data-name="패스 45827" d="M273.948 410.82v-.02l-.079-.1h-6.534l-.079.1v1.754a.916.916 0 0 0 .009.105c0 .016 0 .035.007.057l.015.133.087-.1.137-.159.148-.172.224-.27c.254-.3.476-.54.738-.845h1.3v6.951a.174.174 0 0 1-.066.142l-.706.545.036.1h2.828l.037-.1-.709-.547a.174.174 0 0 1-.062-.14v-6.951h1.3c.261.3.483.539.736.843l.227.271c.047.057.1.113.148.173l.137.159.087.1.015-.133c0-.021 0-.04.007-.057a.917.917 0 0 0 .009-.1v-1.735" transform="translate(-241.983 -396.12)" style="fill:#1d1d1b"/><path data-name="패스 45828" d="M325.261 417.307a.691.691 0 0 0-.009-.1c0-.015 0-.032-.006-.053l-.015-.133-.087.1-.129.149c-.048.056-.1.109-.139.162l-.209.25c-.23.276-.428.469-.665.746h-3.122v-6.953a.174.174 0 0 1 .065-.142l.707-.545-.037-.1h-2.828l-.036.1.709.547a.174.174 0 0 1 .063.14v6.773a.176.176 0 0 1-.065.142l-.68.545.036.1h6.371l.076-.1v-1.629" transform="translate(-272.541 -396.12)" style="fill:#1d1d1b"/><path data-name="패스 45829" d="M349.51 416.259a1.654 1.654 0 0 0-.479-.9 7.121 7.121 0 0 0-1.728-1.225l-.239-.133a8.593 8.593 0 0 1-1.22-.769 1.527 1.527 0 0 1-.645-.9 1.034 1.034 0 0 1 .089-.7 1.165 1.165 0 0 1 .985-.608 3.4 3.4 0 0 1 1.072.066.388.388 0 0 1 .188.081c.291.336.527.578.808.915l.247.3c.047.057.1.113.148.173l.138.159.087.1.015-.133c0-.022 0-.04.007-.057a.748.748 0 0 0 .009-.1v-1.741l-.084-.108h-.022c-.013 0-.3-.046-.438-.061l-.133-.016c-.188-.021-.384-.044-.576-.057l-.149-.01a5.74 5.74 0 0 0-1.842.073 2.754 2.754 0 0 0-.808.328 1.87 1.87 0 0 0-.951 1.961 1.846 1.846 0 0 0 .454.975 3.258 3.258 0 0 0 .775.67c.343.209.7.41 1.038.606l.428.246a6.035 6.035 0 0 1 1.1.75 1.3 1.3 0 0 1 .5.928 1.223 1.223 0 0 1-.385 1 1.675 1.675 0 0 1-.99.412 3.317 3.317 0 0 1-1.351-.163.453.453 0 0 1-.228-.141 59.766 59.766 0 0 0-1.255-1.441l-.063-.074-.072.185v-.055 1.9a.142.142 0 0 0 .144.154l.232.024.216.023 1.011.084h.008c.247.02.518.037.8.037a5.693 5.693 0 0 0 .76-.047 3.592 3.592 0 0 0 1.224-.371 2.162 2.162 0 0 0 .946-.914 1.727 1.727 0 0 0 .219-.682v-.046a3.19 3.19 0 0 0 0-.694" transform="translate(-287.492 -395.997)" style="fill:#1d1d1b"/><path data-name="패스 45830" d="M320.028 378.49h-2.072l-.036.1.711.548a.172.172 0 0 1 .061.138v5.27l-4.755-5.933a.272.272 0 0 0-.24-.12h-1.866l-.037.1 1.083.874a.173.173 0 0 1 .063.14v6.432a.173.173 0 0 1-.065.141l-.707.546.038.1h2.072l.037-.1-.709-.547a.176.176 0 0 1-.063-.139v-5.748c.409.51 4.873 6.005 5.149 6.341a.462.462 0 0 0 .392.19.233.233 0 0 0 .157-.058.177.177 0 0 0 .052-.131v-7.354a.17.17 0 0 1 .065-.141l.706-.546z" transform="translate(-268.414 -377.006)" style="fill:#1d1d1b"/><path data-name="패스 45831" d="M266.086 384.025a1.659 1.659 0 0 0-.479-.9 7.135 7.135 0 0 0-1.728-1.225l-.239-.133a8.561 8.561 0 0 1-1.219-.768 1.528 1.528 0 0 1-.645-.9 1.031 1.031 0 0 1 .089-.7 1.164 1.164 0 0 1 .985-.608 3.388 3.388 0 0 1 1.072.066.39.39 0 0 1 .188.081c.29.336.527.579.807.915l.248.3c.047.056.1.113.148.172l.137.159.087.1.015-.133c0-.022 0-.04.007-.057a.829.829 0 0 0 .009-.1v-1.74l-.083-.108h-.023c-.012 0-.3-.046-.438-.062l-.133-.015c-.189-.022-.384-.045-.576-.058l-.149-.01a5.754 5.754 0 0 0-1.842.073 2.784 2.784 0 0 0-.807.328 1.871 1.871 0 0 0-.951 1.961 1.846 1.846 0 0 0 .453.975 3.271 3.271 0 0 0 .775.67c.343.209.7.411 1.037.606l.429.246a6.118 6.118 0 0 1 1.1.75 1.3 1.3 0 0 1 .5.928 1.221 1.221 0 0 1-.384 1 1.68 1.68 0 0 1-.991.411 3.327 3.327 0 0 1-1.351-.162.447.447 0 0 1-.227-.141 62.204 62.204 0 0 0-1.255-1.441l-.063-.074-.072.185v-.055 1.9a.142.142 0 0 0 .143.153l.232.024.216.022 1.012.084h.008c.247.02.519.037.8.037a5.752 5.752 0 0 0 .76-.047 3.614 3.614 0 0 0 1.225-.371 2.17 2.17 0 0 0 .945-.914 1.72 1.72 0 0 0 .218-.682v-.046a3.221 3.221 0 0 0 0-.694" transform="translate(-237.985 -376.868)" style="fill:#1d1d1b"/><path data-name="패스 45832" d="M232.161 378.2a4.273 4.273 0 1 0 4.311 4.273 4.3 4.3 0 0 0-4.311-4.273m2.806 4.288c0 2.064-1.258 3.744-2.806 3.744s-2.807-1.68-2.807-3.744 1.26-3.745 2.807-3.745 2.806 1.68 2.806 3.745" transform="translate(-218.598 -376.835)" style="fill:#1d1d1b"/><path data-name="패스 45833" d="M291.679 378.464h-2.07l-.037.1.709.547a.172.172 0 0 1 .063.139v4.7a3.188 3.188 0 0 1-.214 1.26 1.733 1.733 0 0 1-.631.767 2.089 2.089 0 0 1-.984.333 3.1 3.1 0 0 1-1.507-.179 1.554 1.554 0 0 1-.733-.616 2.428 2.428 0 0 1-.35-1.284c0-.623-.011-4.2-.011-4.979a.176.176 0 0 1 .065-.141l.707-.545-.037-.1h-2.884l-.036.1.709.547a.173.173 0 0 1 .063.139v4.516a3.91 3.91 0 0 0 .2 1.377 2.428 2.428 0 0 0 .433.759 2.556 2.556 0 0 0 .992.7 3.815 3.815 0 0 0 1.129.268c.208.017.4.026.591.026a4.5 4.5 0 0 0 1.2-.149 2.711 2.711 0 0 0 .966-.464 2.382 2.382 0 0 0 .875-1.612 6.006 6.006 0 0 0 .061-.9v-4.524a.176.176 0 0 1 .065-.141l.707-.545z" transform="translate(-251.758 -376.991)" style="fill:#1d1d1b"/><path data-name="패스 45834" d="M213.125 378.495h-2.855l-.04.1.711.547a.176.176 0 0 1 .062.14v7.111a2.467 2.467 0 0 1-1.672 2.341l-.049.022.044.075h.045a3.807 3.807 0 0 0 1.5-.421 2.728 2.728 0 0 0 1.518-2.51v-6.62a.173.173 0 0 1 .065-.142l.707-.545z" transform="translate(-207.578 -377.009)" style="fill:#1d1d1b"/></g></svg>